<svg width="40" height="40" viewBox="0 0 40 40" fill="none" xmlns="http://www.w3.org/2000/svg">
    <path d="M32.0845 7.94025V4H24.0203V7.9896H16.029V4H7.91553V7.94025H4V36H16.0044V32.0045C16.0058 30.9457 16.4274 29.9308 17.1766 29.1826C17.9258 28.4345 18.9412 28.0143 20 28.0143C21.0588 28.0143 22.0743 28.4345 22.8234 29.1826C23.5726 29.9308 23.9942 30.9457 23.9956 32.0045V36H36V7.94025H32.0845Z"
          fill="url(#paint0_linear_dark)"/>
    <path d="M20 22C21.6569 22 23 20.6569 23 19C23 17.3431 21.6569 16 20 16C18.3431 16 17 17.3431 17 19C17 20.6569 18.3431 22 20 22Z" fill="white"/>
    <path d="M12 14H28V12H12V14Z" fill="white"/>
    <path d="M12 18H16V16H12V18Z" fill="white"/>
    <path d="M24 18H28V16H24V18Z" fill="white"/>
    <defs>
        <linearGradient id="paint0_linear_dark" x1="2.94192" y1="4.89955" x2="37.7772" y2="39.7345"
                        gradientUnits="userSpaceOnUse">
            <stop offset="0.15937" stop-color="#4CAF50"/>
            <stop offset="0.5404" stop-color="#2196F3"/>
            <stop offset="0.93739" stop-color="#9C27B0"/>
        </linearGradient>
    </defs>
</svg>